HIERARCHY
ROOT Hips
{
    OFFSET   0.000000   0.000000   0.000000
    CHANNELS 6 Xposition Yposition Zposition Zrotation Xrotation Yrotation
    JOINT Chest
    {
        OFFSET   0.000000   8.007240   0.000000
        CHANNELS 3 Zrotation Xrotation Yrotation
        JOINT Chest2
        {
            OFFSET   0.000000  22.077100   0.000000
            CHANNELS 3 Zrotation Xrotation Yrotation
            JOINT Neck
            {
                OFFSET   0.000000  23.254800   0.000000
                CHANNELS 3 Zrotation Xrotation Yrotation
                JOINT Head
                {
                    OFFSET   0.000000  14.370000   1.956600
                    CHANNELS 3 Zrotation Xrotation Yrotation
                    End Site
                    {
                        OFFSET   0.000000  19.566000   0.000000
                    }
                }
            }
            JOINT LeftCollar
            {
                OFFSET   3.911900  19.017000  -0.467064
                CHANNELS 3 Zrotation Xrotation Yrotation
                JOINT LeftShoulder
                {
                    OFFSET  10.383700   0.000000   0.000000
                    CHANNELS 3 Zrotation Xrotation Yrotation
                    JOINT LeftElbow
                    {
                        OFFSET  26.662100   0.001476   0.000517
                        CHANNELS 3 Zrotation Xrotation Yrotation
                        JOINT LeftWrist
                        {
                            OFFSET  28.869000  -0.000025  -0.000106
                            CHANNELS 3 Zrotation Xrotation Yrotation
                            JOINT LeftFinger0
                            {
                                OFFSET   2.044660  -2.323460   3.252850
                                CHANNELS 3 Zrotation Xrotation Yrotation
                                JOINT LeftFinger01
                                {
                                    OFFSET   3.088130   0.000000   0.000000
                                    CHANNELS 3 Zrotation Xrotation Yrotation
                                    JOINT LeftFinger02
                                    {
                                        OFFSET   2.639460   0.000000   0.000000
                                        CHANNELS 3 Zrotation Xrotation Yrotation
                                        End Site
                                        {
                                            OFFSET   2.582190   0.000000   0.000000
                                        }
                                    }
                                }
                            }
                            JOINT LeftFinger1
                            {
                                OFFSET   8.364480   0.000000   3.252850
                                CHANNELS 3 Zrotation Xrotation Yrotation
                                JOINT LeftFinger11
                                {
                                    OFFSET   4.646930   0.000000   0.000000
                                    CHANNELS 3 Zrotation Xrotation Yrotation
                                    JOINT LeftFinger12
                                    {
                                        OFFSET   2.323460   0.000000   0.000000
                                        CHANNELS 3 Zrotation Xrotation Yrotation
                                        End Site
                                        {
                                            OFFSET   2.273050   0.000000   0.000000
                                        }
                                    }
                                }
                            }
                            JOINT LeftFinger2
                            {
                                OFFSET   8.364490   0.000015   1.078090
                                CHANNELS 3 Zrotation Xrotation Yrotation
                                JOINT LeftFinger21
                                {
                                    OFFSET   5.111620   0.000000   0.000000
                                    CHANNELS 3 Zrotation Xrotation Yrotation
                                    JOINT LeftFinger22
                                    {
                                        OFFSET   2.788160   0.000016   0.000000
                                        CHANNELS 3 Zrotation Xrotation Yrotation
                                        End Site
                                        {
                                            OFFSET   2.727660   0.000000   0.000000
                                        }
                                    }
                                }
                            }
                            JOINT LeftFinger3
                            {
                                OFFSET   7.899780   0.000017  -1.078090
                                CHANNELS 3 Zrotation Xrotation Yrotation
                                JOINT LeftFinger31
                                {
                                    OFFSET   4.646930   0.000000   0.000000
                                    CHANNELS 3 Zrotation Xrotation Yrotation
                                    JOINT LeftFinger32
                                    {
                                        OFFSET   2.323470   0.000000   0.000000
                                        CHANNELS 3 Zrotation Xrotation Yrotation
                                        End Site
                                        {
                                            OFFSET   2.273050   0.000000   0.000000
                                        }
                                    }
                                }
                            }
                            JOINT LeftFinger4
                            {
                                OFFSET   7.435090   0.000000  -3.252850
                                CHANNELS 3 Zrotation Xrotation Yrotation
                                JOINT LeftFinger41
                                {
                                    OFFSET   3.717550   0.000000   0.000000
                                    CHANNELS 3 Zrotation Xrotation Yrotation
                                    JOINT LeftFinger42
                                    {
                                        OFFSET   1.858770   0.000000   0.000000
                                        CHANNELS 3 Zrotation Xrotation Yrotation
                                        End Site
                                        {
                                            OFFSET   1.818440   0.000000   0.000000
                                        }
                                    }
                                }
                            }
                        }
                    }
                }
            }
            JOINT RightCollar
            {
                OFFSET  -3.911900  19.017000  -0.467063
                CHANNELS 3 Zrotation Xrotation Yrotation
                JOINT RightShoulder
                {
                    OFFSET -10.383700   0.000019   0.000000
                    CHANNELS 3 Zrotation Xrotation Yrotation
                    JOINT RightElbow
                    {
                        OFFSET -26.662100   0.001175   0.000102
                        CHANNELS 3 Zrotation Xrotation Yrotation
                        JOINT RightWrist
                        {
                            OFFSET -28.869000   0.000016  -0.000079
                            CHANNELS 3 Zrotation Xrotation Yrotation
                            JOINT RightFinger0
                            {
                                OFFSET  -2.044660  -2.323490   3.252850
                                CHANNELS 3 Zrotation Xrotation Yrotation
                                JOINT RightFinger01
                                {
                                    OFFSET  -3.088140   0.000000   0.000000
                                    CHANNELS 3 Zrotation Xrotation Yrotation
                                    JOINT RightFinger02
                                    {
                                        OFFSET  -2.639460   0.000000   0.000000
                                        CHANNELS 3 Zrotation Xrotation Yrotation
                                        End Site
                                        {
                                            OFFSET  -2.582190   0.000000   0.000000
                                        }
                                    }
                                }
                            }
                            JOINT RightFinger1
                            {
                                OFFSET  -8.364480   0.000000   3.252850
                                CHANNELS 3 Zrotation Xrotation Yrotation
                                JOINT RightFinger11
                                {
                                    OFFSET  -4.646930   0.000000   0.000000
                                    CHANNELS 3 Zrotation Xrotation Yrotation
                                    JOINT RightFinger12
                                    {
                                        OFFSET  -2.323470   0.000000   0.000000
                                        CHANNELS 3 Zrotation Xrotation Yrotation
                                        End Site
                                        {
                                            OFFSET  -2.273050   0.000000   0.000000
                                        }
                                    }
                                }
                            }
                            JOINT RightFinger2
                            {
                                OFFSET  -8.364480   0.000000   1.078090
                                CHANNELS 3 Zrotation Xrotation Yrotation
                                JOINT RightFinger21
                                {
                                    OFFSET  -5.111620   0.000000   0.000000
                                    CHANNELS 3 Zrotation Xrotation Yrotation
                                    JOINT RightFinger22
                                    {
                                        OFFSET  -2.788160   0.000000   0.000000
                                        CHANNELS 3 Zrotation Xrotation Yrotation
                                        End Site
                                        {
                                            OFFSET  -2.727660   0.000000   0.000000
                                        }
                                    }
                                }
                            }
                            JOINT RightFinger3
                            {
                                OFFSET  -7.899780   0.000000  -1.078090
                                CHANNELS 3 Zrotation Xrotation Yrotation
                                JOINT RightFinger31
                                {
                                    OFFSET  -4.646930   0.000000   0.000000
                                    CHANNELS 3 Zrotation Xrotation Yrotation
                                    JOINT RightFinger32
                                    {
                                        OFFSET  -2.323470   0.000000   0.000000
                                        CHANNELS 3 Zrotation Xrotation Yrotation
                                        End Site
                                        {
                                            OFFSET  -2.273050   0.000000   0.000000
                                        }
                                    }
                                }
                            }
                            JOINT RightFinger4
                            {
                                OFFSET  -7.435090   0.000000  -3.252850
                                CHANNELS 3 Zrotation Xrotation Yrotation
                                JOINT RightFinger41
                                {
                                    OFFSET  -3.717550   0.000000   0.000000
                                    CHANNELS 3 Zrotation Xrotation Yrotation
                                    JOINT RightFinger42
                                    {
                                        OFFSET  -1.858770   0.000000   0.000000
                                        CHANNELS 3 Zrotation Xrotation Yrotation
                                        End Site
                                        {
                                            OFFSET  -1.818440   0.000000   0.000000
                                        }
                                    }
                                }
                            }
                        }
                    }
                }
            }
        }
    }
    JOINT LeftHip
    {
        OFFSET   9.783040   0.000000   0.000000
        CHANNELS 3 Zrotation Xrotation Yrotation
        JOINT LeftKnee
        {
            OFFSET   0.000032 -41.789100  -0.002222
            CHANNELS 3 Zrotation Xrotation Yrotation
            JOINT LeftAnkle
            {
                OFFSET   0.000087 -41.133200  -0.000135
                CHANNELS 3 Zrotation Xrotation Yrotation
                JOINT LeftToe
                {
                    OFFSET   0.000000  -6.358960  14.674500
                    CHANNELS 3 Zrotation Xrotation Yrotation
                    End Site
                    {
                        OFFSET   0.000000   0.000000   3.913200
                    }
                }
            }
        }
    }
    JOINT RightHip
    {
        OFFSET  -9.783040   0.000000   0.000000
        CHANNELS 3 Zrotation Xrotation Yrotation
        JOINT RightKnee
        {
            OFFSET   0.000047 -41.789100  -0.000896
            CHANNELS 3 Zrotation Xrotation Yrotation
            JOINT RightAnkle
            {
                OFFSET  -0.000117 -41.133300  -0.000248
                CHANNELS 3 Zrotation Xrotation Yrotation
                JOINT RightToe
                {
                    OFFSET   0.000000  -6.358970  14.674500
                    CHANNELS 3 Zrotation Xrotation Yrotation
                    End Site
                    {
                        OFFSET   0.000000   0.000000   3.913200
                    }
                }
            }
        }
    }
}
MOTION
Frames: 4
Frame Time:   0.016667
 -0.485505  89.589400  -0.251778  -1.144030  -1.987320   1.749710   0.975754   2.748550  -1.086910   2.007040   5.477630  -2.224400   0.202267  -1.464740   0.000576   0.334337  -2.970060   8.588610  -9.116910   3.840470  -0.764682 -65.714400  10.417700  -7.416420  -1.934150  -9.805970  -7.541390   1.823770  -9.223220   1.944880  45.635600  35.460200 -74.961100 -18.730500  -0.000896   0.004418  -4.365260  -0.002171   0.005215 -39.367900   2.948160  -3.586960 -32.285600  -0.005263   0.011892 -22.599900  -0.004474  -0.013525 -28.723700  -2.236930   4.074800 -42.596200  -0.003597  -0.008008 -28.369100  -0.002406  -0.004894 -28.214300  -4.013640   7.432820 -35.877900  -0.006455   0.008210 -23.894600  -0.005904   0.000684 -31.714800  -5.617350   9.000760 -48.235900  -0.007592   0.001751 -32.125100  -0.004405  -0.003950  10.962500   0.635397   9.592390  65.878900   2.674920   0.267628  -0.923028  -7.649480   8.121080  -1.486790  -6.680650   0.417967 -43.643200  45.143200  83.870400  33.481800  -0.003308   0.002269  11.740900   0.000285   0.010023  31.567000   8.224860  13.107100  26.602000   0.003098   0.006424  18.621400   0.009031  -0.000611  28.494500   4.212160   7.709110  40.833900  -0.005528  -0.004256  27.195400  -0.004497   0.006970  29.030800   2.234420   4.018270  43.663800   0.001997   0.008060  29.080100   0.007902  -0.000118  38.030500  -0.522909  -0.652157  57.050100   0.008229   0.001130  37.995300   0.005426  -0.004908   2.739180   3.826260   2.449680   0.814248   0.082881  12.530000  -4.301580  -1.853410   1.963310  -0.000000   0.000000  -0.000000  -0.481549   1.821580  -3.227670   1.376080   2.010730 -14.364200  -1.870050  -2.093750  -6.225790  -0.000000   0.000000  -0.000000
 -0.485505  89.589400  -0.251762  -1.144000  -1.987590   1.749710   0.977387   2.748550  -1.087040   2.010320   5.477590  -2.224730   0.202935  -1.458930   0.000552   0.334206  -2.958300   8.575930  -9.116870   3.840490  -0.764699 -65.713000  10.418900  -7.416440  -1.934950  -9.813090  -7.532130   1.816920  -9.223160   1.958610  45.630600  35.458700 -74.957400 -18.783800  -0.000899   0.004415  -4.391900  -0.002169   0.005225 -39.383700   2.941920  -3.577630 -32.298200  -0.005262   0.011894 -22.608800  -0.004472  -0.013525 -28.722000  -2.249060   4.096910 -42.635400  -0.003596  -0.008009 -28.395200  -0.002405  -0.004894 -28.214300  -4.029430   7.461700 -35.899800  -0.006455   0.008209 -23.909200  -0.005902   0.000685 -31.745000  -5.643170   9.030750 -48.286500  -0.007589   0.001754 -32.158800  -0.004404  -0.003949  10.963400   0.629775   9.592370  65.859300   2.669310   0.267678  -0.922995  -7.655170   8.117440  -1.483930  -6.681730   0.412981 -43.637600  45.132900  83.834300  33.491000  -0.003305   0.002273  11.745700   0.000289   0.010032  31.559800   8.216170  13.097100  26.595300   0.003096   0.006424  18.616700   0.009033  -0.000613  28.494300   4.212870   7.710520  40.821300  -0.005530  -0.004254  27.187000  -0.004497   0.006970  29.022600   2.230420   4.012360  43.650700   0.001994   0.008059  29.071400   0.007901  -0.000119  38.019200  -0.522903  -0.651780  57.033300   0.008228   0.001129  37.984100   0.005425  -0.004907   2.739400   3.820180   2.449340   0.814147   0.094321  12.529700  -4.302590  -1.859800   1.963270   0.000000   0.000000   0.000000  -0.481487   1.819990  -3.227670   1.375820   2.012370 -14.364300  -1.871130  -2.094200  -6.223890   0.000000   0.000000   0.000000
 -0.485504  89.589400  -0.251746  -1.143950  -1.987860   1.749710   0.979607   2.748520  -1.087210   2.014770   5.477500  -2.225180   0.207616  -1.447670   0.000527   0.341582  -2.935500   8.542030  -9.116800   3.840630  -0.764716 -65.709600  10.420000  -7.416440  -1.937270  -9.820350  -7.516160   1.801090  -9.223050   1.979830  45.618100  35.453500 -74.943900 -18.869800  -0.000903   0.004407  -4.434880  -0.002166   0.005235 -39.400000   2.931980  -3.563300 -32.310900  -0.005259   0.011897 -22.617700  -0.004468  -0.013525 -28.719400  -2.267150   4.129910 -42.683700  -0.003590  -0.008012 -28.427400  -0.002401  -0.004893 -28.214200  -4.052910   7.504660 -35.931500  -0.006454   0.008205 -23.930300  -0.005898   0.000685 -31.795700  -5.681020   9.072480 -48.370100  -0.007584   0.001759 -32.214500  -0.004403  -0.003945  10.964300   0.624153   9.592280  65.829300   2.661040   0.267750  -0.923072  -7.667620   8.105990  -1.481660  -6.686330   0.402700 -43.632000  45.122600  83.798200  33.505900  -0.003302   0.002276  11.752900   0.000296   0.010041  31.555400   8.201890  13.077700  26.588500   0.003090   0.006424  18.612000   0.009035  -0.000617  28.494200   4.213580   7.711930  40.808700  -0.005533  -0.004252  27.178600  -0.004498   0.006971  29.013300   2.223410   4.001400  43.636500   0.001986   0.008057  29.061900   0.007898  -0.000122  38.006200  -0.522894  -0.651404  57.013900   0.008226   0.001127  37.971200   0.005423  -0.004902   2.740020   3.804620   2.448970   0.814203   0.122429  12.529300  -4.305500  -1.875530   1.962960   0.000000   0.000000  -0.000000  -0.481570   1.808800  -3.227670   1.375080   2.023840 -14.364500  -1.872720  -2.094660  -6.221080  -0.000000   0.000000  -0.000000
 -0.484127  89.589400  -0.253566  -1.144070  -1.985870   1.746330   0.980319   2.748460  -1.087270   2.016200   5.477370  -2.225340   0.220724  -1.436360   0.000550   0.363630  -2.912610   8.489000  -9.117030   3.844020  -0.760155 -65.704700  10.419500  -7.410930  -1.942460  -9.819820  -7.502790   1.777370  -9.218050   1.993270  45.614800  35.442700 -74.914400 -18.937600  -0.000902   0.004395  -4.468790  -0.002162   0.005235 -39.400900   2.923400  -3.552620 -32.310900  -0.005253   0.011898 -22.617700  -0.004463  -0.013522 -28.717700  -2.278880   4.151330 -42.694400  -0.003581  -0.008019 -28.434500  -0.002396  -0.004892 -28.214000  -4.067880   7.532130 -35.946600  -0.006451   0.008198 -23.940400  -0.005892   0.000685 -31.837000  -5.703340   9.089420 -48.435900  -0.007579   0.001767 -32.258400  -0.004399  -0.003938  10.964200   0.624250   9.591660  65.810400   2.657220   0.267792  -0.923421  -7.685420   8.084560  -1.497810  -6.699330   0.389462 -43.631000  45.126100  83.798000  33.519600  -0.003306   0.002262  11.758000   0.000303   0.010032  31.565400   8.188140  13.052200  26.593200   0.003081   0.006429  18.615300   0.009031  -0.000622  28.495900   4.207570   7.700560  40.839400  -0.005532  -0.004253  27.199100  -0.004499   0.006974  29.012500   2.216220   3.989150  43.635100   0.001977   0.008055  29.060900   0.007891  -0.000128  38.004200  -0.522891  -0.654040  57.010900   0.008221   0.001123  37.969300   0.005420  -0.004894   2.741280   3.772780   2.450650   0.814933   0.177656  12.530800  -4.312120  -1.906460   1.960660   0.000000   0.000000   0.000000  -0.482369   1.766760  -3.232010   1.373700   2.063370 -14.359600  -1.873320  -2.092420  -6.219660   0.000000   0.000000  -0.000000
